<?xml version="1.0" encoding="utf-8"?>
<!-- Generator: Adobe Illustrator 19.0.0, SVG Export Plug-In . SVG Version: 6.00 Build 0)  -->
<svg version="1.1" id="Layer_1" xmlns="http://www.w3.org/2000/svg" xmlns:xlink="http://www.w3.org/1999/xlink" x="0px" y="0px"
	 viewBox="-255 334 100 125" style="enable-background:new -255 334 100 125;" xml:space="preserve">
<g>
	<path d="M-186.8,428.9c-1.6-2.4-3.2-4.6-4.6-6.9c-1-1.7-2.3-1.8-3.9-1.8c-4.7,0.2-9.5,0.6-14.2,0.5c-4.9-0.1-9.6-0.9-14.4-1.9
		c-4.6-1-9-2.4-13.2-4.5c-4.1-2.1-7-5.4-8.9-9.4c-3.3-6.6-4.6-13.8-2.6-21c1.3-4.6,3.9-8.7,8-11.7c2.5-1.8,4.2-2.4,7.3-3.7
		c4-1.7,9.2-2.4,13.5-3c7.7-1.2,15.5-2,23.3-1.8c8.2,0.1,16.2,1.4,23.7,5c3,1.4,5.1,4,7.3,6.5c3.4,4,4.5,8.9,4.8,13.9
		c0.3,5.9,0,11.7-1.6,17.4c-2.2,7.9-8.3,12.7-16.5,12.6c-0.6,0-1.2,0-1.8,0c-1.1,0-2,0.4-2.4,1.5c-0.8,1.8-1.7,3.6-2.5,5.4
		C-185.9,426.8-186.3,427.8-186.8,428.9z M-187.3,425c1-2.1,2-4.6,3-6.3c0.4-0.7,1.2-1.5,2-1.6c1.9-0.3,3.8-0.4,5.7-0.4
		c3.8,0.1,6.6-1.8,8.9-4.6c2.4-3,3.5-6.6,4.1-10.3c1.2-7,1.3-13.9-1.4-20.6c-1.6-4-3.9-7.5-7.6-9.6c-6.4-3.5-13.6-4.8-20.8-5.3
		c-5.8-0.4-11.6,0-17.4,0.4c-8.8,0.5-17.4,2.4-25.5,6.1c-5.8,2.6-8.6,7.3-9.8,13c-1.2,5.6-0.2,11.1,2,16.6
		c2.6,6.2,7.4,9.9,13.3,12.1c3.5,1.3,7.4,1.7,11.1,2.3c3.5,0.6,6.9,1.1,10.4,1.2c5.4,0.1,10.5,0,15.9-0.1c1.8,0,3.2,0.5,3.9,2.3
		C-188.7,421.6-188.1,423.4-187.3,425z"/>
	<path d="M-234.9,395.9c0.5,0,59.2,0.2,60,0.3c0.9,0,1.2,1.2-0.1,1.2c-0.7,0-6,0.2-9,0.2c-1.7,0-3.6-0.1-5.3-0.1
		c-4.5,0-8.9-0.1-13.4,0c-7.9,0-15.8-0.1-23.8-0.1c-2.7,0-5.4,0-8.1,0C-236.1,397.4-236.1,395.9-234.9,395.9z"/>
	<path d="M-175.6,387.6c1,0.1,0.8,1.6-0.3,1.6c-7.9,0-16.5,0.1-24.3,0.1c-7.4,0-14.7-0.2-22.1-0.2c-4.1,0-12.1,0.4-12.6-0.1
		c-0.4-0.4-0.3-1.3,0.4-1.5C-233.9,387.5-176.5,387.5-175.6,387.6z"/>
	<path d="M-230.4,381.3c-0.5-0.2-0.6-1.3-0.1-1.6c0.3-0.2,3.8,0,5.6,0c7.8-0.1,15.6-0.1,23.4-0.2c5,0,9.6,0,14.6,0.1
		c2.2,0,4.6,0.1,6.8,0.1c1,0,1,0.5,1,1.2c0,0.2-0.8,0.5-1.2,0.5c-7-0.3-14,0-21-0.2c-1.9,0-3.4,0-5.3,0c-4.4,0.1-8.9-0.1-13.2,0
		c-1.5,0-3-0.1-4.4-0.1C-226.3,381.3-230.2,381.4-230.4,381.3z"/>
	<path d="M-179.6,404c0.5,0.2,0.6,1.1,0.1,1.4c-0.3,0.2-3.8,0-5.6,0c-7.8,0-15.6,0.1-23.4,0.1c-5,0-9.6,0-14.6-0.1
		c-2.2,0-4.6-0.1-6.8-0.1c-1,0-1-0.4-1-1.1c0-0.2,0.8-0.5,1.2-0.5c7,0.2,14,0,21,0.1c1.9,0,3.4,0,5.3,0c4.4-0.1,8.9,0.1,13.2,0
		c1.5,0,3,0.1,4.4,0.1C-183.7,404.1-179.8,403.9-179.6,404z"/>
</g>
</svg>
