<?xml version="1.0" encoding="utf-8"?>
<!-- Generator: Adobe Illustrator 19.0.0, SVG Export Plug-In . SVG Version: 6.00 Build 0)  -->
<svg version="1.1" id="Layer_1" xmlns="http://www.w3.org/2000/svg" xmlns:xlink="http://www.w3.org/1999/xlink" x="0px" y="0px"
	 viewBox="-255 334 100 125" style="enable-background:new -255 334 100 125;" xml:space="preserve">
<g>
	<g>
		<path d="M-190.5,379.1c2.4-1.8,5-3.5,7.3-5.3c2.3-1.7,7.1,4.5,5.5,6c-2.7,2.6-6.1,4.7-9,6.8c-12.9,9.7-26.5,18.8-39.7,28
			c-2.8,2-7.5,5-10.4,7c-2.6,1.8-3.9,1.8-5.2-0.4c-2-3.2-2.4-4,0.6-6.2c3-2.1,6.1-4.4,9.1-6.6c7.1-5.2,14.5-9.7,21.6-14.9
			c1.2-0.9,11.7-8.1,12.1-8.5L-190.5,379.1z M-179.3,378.9c-0.5,0.6-4.7,4.2-5.7,4.5c-0.5,0-1.1-0.9-1.4-1.2c-0.5-0.6-0.9-1.3-1.4-2
			c-0.3-0.6,0.1-0.8,0.4-1.2c1.3-1.2,2.6-2,3.8-3c0.4-0.3,1.1-1,1.7-0.6c0.4,0.3,0.7,0.6,1,1c0.4,0.4,0.8,0.8,1.1,1.3
			C-179.3,378.1-179,378.6-179.3,378.9z"/>
		<path d="M-183.2,364.3c0.4-0.2,0.7,0.4,0.7,0.6c0.1,0.6,0.1,1.2,0,1.8c0,0.3-0.1,0.5-0.1,0.8c0,0.3,0,0.7-0.2,0.8
			c-0.2,0.1-0.6,0-0.7-0.2c-0.4-0.4-0.3-1.2-0.3-1.8c0-0.3,0.1-0.6,0.2-0.9C-183.5,365.2-183.5,364.5-183.2,364.3
			C-183.2,364.3-183.2,364.3-183.2,364.3z"/>
		<path d="M-171.7,386.1c-1.2,0.2-2.8-1.4-2.9-1.7c0,0-0.2-1.1,1.9,0.1S-171.7,386.1-171.7,386.1z"/>
		<path d="M-174.8,366.5c-0.2,0.4-0.9,2.1-1.4,2.4c-0.3,0.1-0.7-0.4-0.3-1.3c0.4-0.8,0.7-1.9,1-2
			C-175.2,365.5-174.6,366.1-174.8,366.5z"/>
	</g>
	<path d="M-169.1,380.1c-0.4,0-2.3-0.3-2.7-0.8c-0.2-0.2,0.2-0.8,1.2-0.6c0.9,0.2,2,0.2,2.2,0.5
		C-168.3,379.5-168.4,380.1-169.1,380.1z"/>
	<path d="M-169.3,371.4c-0.3,0.3-1.8,1.4-2.5,1.3c-0.3,0-0.4-0.7,0.4-1.2c0.8-0.5,1.5-1.3,1.9-1.2
		C-169.2,370.4-169,371.2-169.3,371.4z"/>
</g>
</svg>
