<?xml version="1.0" encoding="utf-8"?>
<!-- Generator: Adobe Illustrator 19.0.0, SVG Export Plug-In . SVG Version: 6.00 Build 0)  -->
<svg version="1.1" id="Layer_1" xmlns="http://www.w3.org/2000/svg" xmlns:xlink="http://www.w3.org/1999/xlink" x="0px" y="0px"
	 viewBox="-255 334 100 125" style="enable-background:new -255 334 100 125;" xml:space="preserve">
<g>
	<path d="M-204.2,363c10,0,19.9,0,29.9,0c2.9,0,3.4,0.5,3.5,3.5c0.1,6,0.2,12,0.4,17.9c0.1,6.1,0.2,12.3,0.4,18.4
		c0,0.8,0.4,1.8,1,2.4c2.4,2.7,4.9,5.3,7.5,7.8c2.2,2.2,1.9,6-1.4,6.1c-2.4,0.6-5,0.7-7.5,0.7c-7.1,0.1-14.2,0.1-21.3,0
		c-6.4,0-12.8-0.2-19.2-0.3c-6,0-11.9,0.2-17.9,0.2c-4.6,0-9.5,0-14-0.2c-1.5-0.1-2.9,0.1-4.2-0.7c-1.8-1.1-2.5-4.4-0.9-5.8
		c3-2.8,6-5.5,8.9-8.3c0.4-0.4,0.5-1.1,0.5-1.7c0-5.7-0.1-11.4-0.1-17.1c0-6.6,0-13.1,0.1-19.7c0-2.2,0.3-2.6,2.5-3
		c1.2-0.2,2.4-0.3,3.5-0.3C-223.2,363-213.7,363-204.2,363C-204.2,363-204.2,363-204.2,363z M-234.9,401.9c20.3,0,40.9,0,61.5,0
		c0-0.5,0-0.9,0-1.2c-0.2-9.7-0.4-19.5-0.5-29.2c-0.1-4.6-0.1-4.7-4.6-4.6c-6.1,0.1-12.1,0.5-18.2,0.6c-11.9,0.1-23.9,0.1-35.8,0.1
		c-1.4,0-1.8,0.4-1.8,1.8c-0.1,5.9-0.4,11.8-0.5,17.8C-235,392.1-234.9,397-234.9,401.9z M-246.5,414c9.7,0,19.7,0,29.5,0
		c0.1-0.4,0.2-0.7,0.3-1.1c0.1-0.4,0.2-0.8,0.4-1.4c8,0,24.6,0.1,24.6,0.1l0.4,2.4c0,0,0.4,0.1,1.5,0.1c8.3,0,16.6,0.1,25,0.1
		c0.4,0,0.8-0.1,1.1-0.1c-2-2.5-4-4.8-5.9-7.3c-0.7-0.9-1.5-1.3-2.7-1.3c-20.7,0-41.3-0.2-62,0c-2.9,0-3.4-0.2-5.3,1.8
		c-0.8,0.9-1.5,1.7-2.3,2.5c-1,0.9-1.9,1.7-2.9,2.6c-0.4,0.4-0.8,0.7-1.1,1.1C-246.1,413.6-246.4,414-246.5,414z M-246.9,415.1
		c0.1,1.7,0.8,2.4,2.3,2.5c1.3,0,2.6,0,3.9,0c25.5,0,51.1,0,76.6,0c2.1,0,2.4-0.3,2-2.5C-190.4,415.1-218.6,415.1-246.9,415.1z
		 M-192.3,414.1c0-0.8-0.1-1.1-0.2-1.9c-7.4,0-23.1-0.1-23.1-0.1l-0.4,2C-216.1,414.1-200.5,414.1-192.3,414.1z"/>
	<path d="M-229.9,407.1c-0.2,0.3-0.8,1.1-0.8,1.1s-1,0-1.4,0c-0.5,0-0.9-0.1-1.4-0.1c0.7-1,1.3-1.6,1.3-1.6s1.6,0,2.8,0
		L-229.9,407.1z"/>
	<path d="M-231.6,409.5c-0.1,0.3-0.7,1-0.7,1s-0.9,0-1.3,0c-0.5,0-0.8-0.1-1.3-0.1c0.6-0.9,1.2-1.5,1.2-1.5s1.4,0,2.5,0
		L-231.6,409.5z"/>
	<path d="M-218.1,409.1c-0.1,0.6-0.6,1.6-0.6,1.6s-2.4-0.2-3.3-0.2c0.4-0.8,0.7-1.6,0.7-1.6S-219.8,408.7-218.1,409.1z"/>
	<path d="M-214.3,409c0,0.7-0.4,1.8-0.4,1.8s-2-0.1-2.8,0c0.3-0.9,0.5-1.8,0.5-1.8S-215.8,408.8-214.3,409z"/>
	<path d="M-222.6,409c-0.3,0.9-0.7,1.6-0.7,1.6c-1.1,0.1-2,0-3.3,0c0.3-0.8,0.7-1.7,0.7-1.7S-223.7,409-222.6,409z"/>
	<path d="M-217.4,406.6c-0.3,0.9-0.7,1.6-0.7,1.6c-1,0.1-1.8-0.1-3-0.1c0.6-0.9,0.7-1.6,0.7-1.6S-218.4,406.6-217.4,406.6z"/>
	<path d="M-213.4,406.6c-0.3,0.9-0.5,1.6-0.5,1.6c-0.9,0-1.8-0.1-2.9-0.1c0.3-0.8,0.6-1.6,0.6-1.6S-214.4,406.6-213.4,406.6z"/>
	<path d="M-209.2,408.9c-0.1,0.7-0.1,1.7-0.1,1.7s2.2,0,3,0.1c-0.1-0.9-0.1-1.6-0.1-1.6S-207.8,408.9-209.2,408.9z"/>
	<path d="M-209.2,406.6c0,0.8,0,1.5,0,1.5c0.8,0.1,1.7,0.1,2.8,0.2c0-0.7,0-1.6,0-1.6C-207.9,406.7-208.3,406.7-209.2,406.6z"/>
	<path d="M-205.5,409c0,0.7,0.1,1.6,0.1,1.6s2.1,0.1,2.9,0.1c-0.1-0.9-0.2-1.8-0.2-1.8S-204,409-205.5,409z"/>
	<path d="M-205.7,406.6c0,0.8,0,1.6,0,1.6c0.8,0.1,1.8,0,3,0c0-0.7,0-1.5,0-1.5C-204.1,406.7-204.8,406.6-205.7,406.6z"/>
	<path d="M-226.4,408.2c0,0-1.7-0.2-2.8-0.1c0.7-1.2,0.9-1.8,0.9-1.8s1.5,0,2.9,0.2L-226.4,408.2z"/>
	<path d="M-225.2,407.9c0.3-0.7,0.9-1.7,0.9-1.7s2,0.1,2.8,0.2c-0.3,0.7-0.8,1.6-0.8,1.6S-223.8,408.2-225.2,407.9z"/>
	<path d="M-213,408.1c0.2-0.7,0.5-1.5,0.5-1.5s1.8-0.1,2.5,0c0,0.8-0.2,1.6-0.2,1.6S-211.6,408.2-213,408.1z"/>
	<path d="M-213.6,410.5c0.2-0.7,0.5-1.6,0.5-1.6s2.2,0,2.9,0c0,0.8-0.1,1.6-0.1,1.6S-212.2,410.6-213.6,410.5z"/>
	<path d="M-231,410.4c0.4-0.7,1.1-1.6,1.1-1.6s1.9,0,2.7,0.2c-0.3,0.7-0.8,1.6-0.8,1.6S-229.4,410.6-231,410.4z"/>
	<path d="M-177.9,407.2c0.2,0.3,0.8,1.1,0.8,1.1s1,0,1.5,0c0.5,0,0.9-0.1,1.4-0.1c-0.7-1-1.3-1.6-1.3-1.6s-1.6,0-2.8,0L-177.9,407.2
		z"/>
	<path d="M-176.2,409.4c0.1,0.3,0.7,1,0.7,1s0.8,0,1.3,0c0.5,0,0.8-0.1,1.3-0.1c-0.6-0.9-1.2-1.5-1.2-1.5s-1.4,0-2.5,0L-176.2,409.4
		z"/>
	<path d="M-189.7,409.2c0.1,0.6,0.6,1.6,0.6,1.6s2.4-0.2,3.3-0.2c-0.4-0.8-0.7-1.6-0.7-1.6S-188,409.1-189.7,409.2z"/>
	<path d="M-193.4,409c0,0.7,0.2,1.7,0.2,1.7s2.1,0,2.9,0c-0.3-0.9-0.5-1.8-0.5-1.8S-191.9,408.8-193.4,409z"/>
	<path d="M-185.2,408.9c0.3,0.9,0.7,1.6,0.7,1.6c1.1,0.1,2,0,3.3,0c-0.3-0.8-0.7-1.7-0.7-1.7S-184,408.9-185.2,408.9z"/>
	<path d="M-190.4,406.6c0.3,0.9,0.7,1.6,0.7,1.6c1,0.1,1.8-0.1,3-0.1c-0.6-0.9-0.7-1.6-0.7-1.6S-189.4,406.6-190.4,406.6z"/>
	<path d="M-194.3,406.6c0.3,0.9,0.5,1.6,0.5,1.6c0.9,0,1.8-0.1,2.9-0.1c-0.3-0.8-0.6-1.6-0.6-1.6S-193.4,406.6-194.3,406.6z"/>
	<path d="M-198.6,409c0.1,0.7,0.1,1.7,0.1,1.7s-2.2,0-3,0.1c-0.1-0.9-0.1-1.6-0.1-1.6S-200,409-198.6,409z"/>
	<path d="M-198.6,406.7c0,0.8,0,1.6,0,1.6c-0.8,0.1-1.7,0.1-2.8,0.1c0-0.7-0.1-1.6-0.1-1.6C-200.1,406.8-199.5,406.7-198.6,406.7z"
		/>
	<path d="M-181.2,408.3c0,0,1.5-0.1,2.8-0.1c-0.7-1.2-0.8-1.8-0.8-1.8s-1.5,0-2.9,0.1L-181.2,408.3z"/>
	<path d="M-182.6,408.1c-0.3-0.7-0.8-1.5-0.8-1.5s-2-0.1-2.8,0c0.3,0.7,0.6,1.6,0.6,1.6S-184,408.2-182.6,408.1z"/>
	<path d="M-194.8,408.2c-0.2-0.7-0.5-1.5-0.5-1.5s-1.8-0.1-2.5,0c0,0.8,0.2,1.6,0.2,1.6S-196.2,408.3-194.8,408.2z"/>
	<path d="M-194.4,410.6c0-0.8-0.1-1.7-0.1-1.7s-2.4,0-3.1,0.1c0,0.8,0.1,1.6,0.1,1.6S-195.8,410.7-194.4,410.6z"/>
	<path d="M-176.8,410.3c-0.4-0.7-1.1-1.6-1.1-1.6s-1.9,0-2.7,0.2c0.3,0.7,0.8,1.6,0.8,1.6S-178.3,410.5-176.8,410.3z"/>
</g>
</svg>
