<?xml version="1.0" encoding="utf-8"?>
<!-- Generator: Adobe Illustrator 19.0.0, SVG Export Plug-In . SVG Version: 6.00 Build 0)  -->
<svg version="1.1" id="Layer_1" xmlns="http://www.w3.org/2000/svg" xmlns:xlink="http://www.w3.org/1999/xlink" x="0px" y="0px"
	 viewBox="-255 334 100 125" style="enable-background:new -255 334 100 125;" xml:space="preserve">
<g>
	<g>
		<path d="M-182.8,385.1c-2.8-10.6-13.6-16.3-21.9-15.9c-2.2,0.4-4.4,0.5-6.5,1.1c-8.2,2.2-13.3,7.5-15.2,15.8
			c-1.8,8,0.8,15.1,4.8,21.9c2.2,3.7,4.3,7.4,4.5,11.9c0.1,1.5,0.4,3.5,1.4,4.3c2.4,1.8,2,4,2.1,6.5c0.1,2.6-0.4,5.6,2.5,7.4
			c1.4,0.9,2.7,2.1,4.1,2.8c0.9,0.4,2.3,0.8,3,0.4c2.2-1.4,4.3-3,6.2-4.8c0.7-0.6,0.9-2,1-3c0.2-1.6-0.1-3.2,0.1-4.8
			c0.2-1.6-0.3-3.4,1.5-4.5c2.8-1.7,3.1-4.6,3.2-7.5c0.1-1.4,0.5-2.9,1.2-4.2c1.4-2.6,3.2-5.1,4.6-7.7
			C-182.8,398.5-180.9,392.3-182.8,385.1z M-212.1,429c0-0.2,0-0.4,0.1-0.6c4.4,0,8.8,0,13.1,0C-200.5,430-209.3,430.5-212.1,429z
			 M-203.2,400.2c-0.1-0.1-0.3-0.2-0.4-0.3c-1.1-0.4-2,0-2.6,0.8c-0.1-0.1-0.2-0.2-0.4-0.2c-1.2-0.6-1.9,0.3-2.4,1.3
			c-0.3-1.1-0.7-2.2-1.1-3.2c0.8-0.3,1.6-0.3,2.4-0.4c1-0.1,2-0.3,3-0.4c0.8-0.1,1.6,0.1,2.4,0.2c0.7,0.1,1.4,0.1,2.1,0.3
			c-0.2,0.8-0.4,1.7-0.5,2.5C-201.6,400.2-202.5,400-203.2,400.2z M-204,403.3c-0.1-0.7,0.2-1.4,0.6-1.8c0,0,0,0,0,0.1
			c0.1,0.3,0.1,0.7,0.2,1c0,0.2,0,0.4,0,0.6C-203.1,403.9-203.9,404.2-204,403.3z M-206.5,402.2c0-0.1,0.2-0.2,0.2-0.3
			c0,0,0.1,0.1,0.1,0.2c0.6,1.1-0.2,1.6-0.4,1.2c-0.1-0.2-0.1-0.4-0.1-0.6c0.1-0.1,0.1-0.2,0.2-0.4
			C-206.5,402.3-206.5,402.2-206.5,402.2z M-208.3,401.9c0.1-0.1,0.2-0.2,0.3-0.3c0.2-0.1,0.5-0.3,0.8-0.3c0.1,0,0.3,0,0.4,0
			c-0.2,0.3-0.3,0.5-0.4,0.8c-0.5,1.1,0.3,3.3,1.7,1.9c0.8-0.8,0.5-2-0.2-2.8c0.5-0.5,1.2-0.9,1.7-0.6c-0.1,0.1-0.2,0.2-0.2,0.3
			c-0.5,0.7-1.1,3.1,0,3.7c1.9,0.9,2.3-1.9,1.5-3.6c0.5-0.1,1,0,1.6,0.6c0,0,0,0,0.1,0c-0.4,1.7-0.7,3.4-1.1,5
			c-0.4,1.5-0.5,2.6-0.7,4.1c0,0.2-0.2,1.7-0.3,1.9c-0.3,2.3-0.4,3.5-0.4,5.8c0,0.8,0,1.6,0,2.5c0,0.4,0,4.5,0,4.5
			c-1.5,0-2.6,0-4.2,0c2-7.8,1-15.3-1.1-22.4c0,0,0-0.1,0.1-0.2c0-0.1,0-0.1,0.1-0.2C-208.5,402.4-208.4,402.2-208.3,401.9z
			 M-210.1,436.5c4-0.3,7.6-0.6,11-0.9C-199.8,437.6-206.4,438.6-210.1,436.5z M-208.8,434.1c2.3-0.2,4.7-0.3,7-0.5
			c0,0.2,0,0.4,0,0.6c-2.4,0.2-4.7,0.4-7.1,0.6C-208.8,434.5-208.8,434.3-208.8,434.1z M-211.1,432.7c0-0.4-0.1-0.7-0.1-1.1
			c3.9-0.4,7.8-0.9,11.6-1.2c0.2,0,0.5,0.6,0.7,1.6C-202.9,432.2-207,432.4-211.1,432.7z M-186.2,400.5c-1.2,2.6-2.6,5.2-4.4,7.3
			c-2.1,2.5-2.8,5.3-2.6,8.4c0.3,3.8-2.6,5.9-4.5,8.4c-0.8,1.1-3.4,0.8-5.4,0.8c0.1-3.3,0.3-6.2,0.4-9.5c0.1-4.9,1.4-9.8,2.4-14.6
			c0.1-0.5,0.1-1,0.3-1.5c0.3-0.9,1.1-1.6,1.5-2.3c-2.3-0.6,0.5-2.2,0-3.2c-0.7-0.2-1.3-0.4-2.1-0.6c-0.1,0.6-0.3,1.3-0.1,1.9
			c0.2,0.7,0,1.5-0.8,1.7c-0.9,0.2-1.9,0-2.9,0.1c-0.4,0-4.7,0.5-4.7,0.5c-0.2-1.3-0.4-2.3-0.6-3.3c-0.4,0.2-0.8,0.4-1.3,0.6
			c-0.3-0.6-0.6-1.3-0.8-2c-0.2,0.1-0.4,0.1-0.6,0.2c0.5,1.8,1.1,3.6,1.6,5.3c1,3.6,1.9,7.3,3,10.9c1.6,5.3-0.1,10.4-0.1,15.7
			c-5.1-0.8-8.5-1.3-8-7.1c0.3-3.9-2-6.9-3.5-10.2c-1.6-3.3-3.7-6.5-4.9-10c-2.8-7.9-0.8-14.8,5.3-20.5c6.2-5.9,13.4-8.4,21.8-5.1
			c5.4,2.2,9.7,5.9,12.2,11.1C-182.3,389.5-183.8,395.1-186.2,400.5z"/>
	</g>
	<path d="M-164.1,379.7c0.6,1.4-8.8,5.1-9.5,3.9C-174,382.4-164.9,379-164.1,379.7z"/>
	<path d="M-177.7,357.3c1.2,1-5.5,8.5-6.6,7.8C-185.2,364.3-178.7,357-177.7,357.3z"/>
	<path d="M-204.3,348.6c1.5,0,1.2,10.1-0.1,10.2C-205.7,358.8-205.3,349-204.3,348.6z"/>
	<path d="M-245.8,377c-0.8,1.3,7.8,6.5,8.7,5.4C-236.5,381.3-245,376.4-245.8,377z"/>
	<path d="M-229.9,356.2c-1.3,0.8,4,9.3,5.3,8.8C-223.5,364.3-228.8,356-229.9,356.2z"/>
</g>
</svg>
