<?xml version="1.0" encoding="utf-8"?>
<!-- Generator: Adobe Illustrator 19.0.0, SVG Export Plug-In . SVG Version: 6.00 Build 0)  -->
<svg version="1.1" id="Layer_1" xmlns="http://www.w3.org/2000/svg" xmlns:xlink="http://www.w3.org/1999/xlink" x="0px" y="0px"
	 viewBox="-255 334 100 125" style="enable-background:new -255 334 100 125;" xml:space="preserve">
<g>
	<path d="M-233.1,376.7c0.1-0.9,0.1-1.6,0.2-2.8c2,0,7.4,0,7.4,0s0,1.5,0.1,2.5c2.7,0,5.9,0,9.1,0c0-2.5,0-4.7,0-7
		c0-2.3,0.5-3.1,2.9-3.1c6.3,0,12.5,0.1,18.8,0c1.9,0,2.3,1.2,2.4,2.6c0.1,2,0.1,4.1,0.1,6.1c0,0.6,0.1,1.2,0.2,1.7
		c3.1,0,6.1,0,9.1,0c3.5,0,6.9-0.1,10.4,0c3.4,0,5.2,1.9,5.2,5.3c0,12.4,0,24.9-0.1,37.3c0,4.2-2.5,6.7-6.7,6.7
		c-8.2,0-16.5-0.1-24.7-0.1c-10.3,0.1-20.5,0.2-30.8,0.3c-3.1,0-6.2,0-9.3-0.1c-1.7-0.1-2.8-1.3-2.9-3.2c-0.1-7.6-0.2-15.2-0.3-22.8
		c-0.1-6.1-0.1-12.2-0.2-18.4c-0.1-2.9,0.2-4.9,3.1-5C-237.4,376.9-235,376.9-233.1,376.7z M-169.8,401.5c0-3.2-0.1-6.5-0.1-9.7
		c0-2.5,0-5-0.1-7.5c-0.1-3.9-2-4.4-4.5-4.5c-13.5-0.1-27-0.4-40.5-0.5c-6.9-0.1-13.8-0.1-20.8-0.1c-2.8,0-4.1,0.4-4,3.7
		c0.1,12.2,0.1,24.4,0.3,36.5c0.1,3.6,0.8,4.2,4.3,4.6c1.2,0.1,2.3,0.2,3.5,0.1c8.7-0.1,17.3-0.3,26-0.3c10.1-0.1,20.2,0,30.3,0
		c4.3,0,5.6-1.3,5.6-5.6C-169.6,412.5-169.7,407-169.8,401.5z M-194.6,376.7c0.8-0.8-0.1-3.8,0.1-5.5c0.2-1.6-0.4-2.3-2-2.3
		c-5.5,0-11-0.1-16.5-0.2c-1.1,0-1.6,0.4-1.5,1.5c0.2,1.7-0.1,3.3,0,5c0,1.2,0.4,1.6,1.7,1.6C-207,376.7-195.5,377.6-194.6,376.7z"
		/>
	<path d="M-189.6,352.9c1.2,0.8-4.2,8.4-5.3,7.9C-195.8,360.1-190.5,352.8-189.6,352.9z"/>
	<path d="M-204.4,348.1c1.4,0,1.1,9.4-0.1,9.5C-205.7,357.6-205.3,348.5-204.4,348.1z"/>
	<path d="M-218,401.8c-0.2-12.7,8.9-20.3,19.3-20.7c12.6-0.4,21.3,8.4,21.3,20.1c0.1,13.8-8.1,20.4-20.5,20.9
		C-206.7,422.4-219,414.1-218,401.8z M-179,402.5c0.5-12.2-8.9-19.7-18.7-19.4c-10.8,0.3-18.3,6.9-18.6,19
		c-0.2,9.5,9.2,19,19.2,18.4C-187.1,419.9-179.5,413.3-179,402.5z"/>
	<path d="M-197.6,417.6c-7.4,0.7-15.6-6.2-15.9-16.1c-0.2-9.3,5.5-16.3,14-16.2c10.7,0.1,16.8,4.6,17.8,16.4
		C-180.9,410.6-190.1,418.2-197.6,417.6z M-198.3,414.3c6.8,0.3,13.9-6.2,13.5-12.2c-0.3-6-5.3-13.4-13.4-13.1
		c-7.2,0.3-12.2,4.8-12.2,11.7C-210.3,407.7-204.3,414.4-198.3,414.3z"/>
	<path d="M-221.1,353c-1.2,0.8,4.2,8.4,5.3,7.9C-214.8,360.2-220.2,352.8-221.1,353z"/>
	<path d="M-196.8,370.6c2.7,0.6-5.4,0.5-6.6,0.5c-2,0-4,0-6.1,0c-2.5,0-3.4-0.1-2.8-0.5c0.2-0.2,8.2-0.1,9-0.1
		C-201.4,370.4-197.9,370.3-196.8,370.6z"/>
	<path d="M-211.9,372.7c-2.7-0.6,5.4-0.5,6.6-0.5c2,0,4,0,6.1,0c2.5,0,3.4,0.1,2.8,0.5c-0.2,0.2-8.2,0.1-9,0.1
		C-207.3,372.9-210.8,373-211.9,372.7z"/>
	<path d="M-225.2,385.1c1.6-6.1,1.3,12.1,1.3,14.8c0,4.5,0.1,9,0.1,13.5c0,5.6-0.2,7.7-1.4,6.3c-0.5-0.6-0.4-18.4-0.4-20.2
		C-225.6,395.5-225.9,387.5-225.2,385.1z"/>
	<path d="M-196.7,374.4c2.7,0.6-5.4,0.5-6.6,0.5c-2,0-4,0-6.1,0c-2.5,0-3.4-0.1-2.8-0.5c0.2-0.2,8.2-0.1,9-0.1
		C-201.3,374.3-197.8,374.2-196.7,374.4z"/>
</g>
</svg>
