<?xml version="1.0" encoding="utf-8"?>
<!-- Generator: Adobe Illustrator 19.0.0, SVG Export Plug-In . SVG Version: 6.00 Build 0)  -->
<svg version="1.1" id="Layer_1" xmlns="http://www.w3.org/2000/svg" xmlns:xlink="http://www.w3.org/1999/xlink" x="0px" y="0px"
	 viewBox="-255 334 100 125" style="enable-background:new -255 334 100 125;" xml:space="preserve">
<g>
	<path d="M-224.4,431.9c-2.3-0.2-4.3-0.6-6.3-1c-1.2-0.2-2.7-0.8-3.4-1.7c-4.8-5.6-9.6-11.2-14.1-17c-0.8-1-0.2-3.2-0.1-4.8
		c0.1-1.7,0.6-3.4,0.6-5.2c0-1.8,0.8-2.9,2.1-4c15.5-12.8,31-25.6,46.6-38.3c1-0.8,2.8-1.1,4.2-1.1c7.1,0,13.9-0.4,20.9-0.9
		c3.5-0.3,7.2-1.1,10.7-1.8c0.5-0.1,1.2-0.1,1.4,0.1c0.5,0.4,0.6,0.9,0.1,1.6c-1.1,2.8-2.2,5.6-3.4,8.3c-2.1,4.7-3.2,9.7-3.7,14.8
		c-0.3,2.9-1,5.8-2,8.5c-0.5,1.4-2,2.4-3.3,3.4c-15.2,12.7-30.4,25.3-45.6,38C-220.9,432.1-223.1,431.8-224.4,431.9z M-183.9,390.2
		c-4.8,0-10.3,0.2-14.9-0.1c-1.3-6.1-1.3-11.6-1.9-17.3c-15.5,12.7-30.9,25.3-46.5,38c0.2,0.4,0.3,0.7,0.5,0.9
		c4.9,5.6,9.7,11.2,14.6,16.9c0.9,1.1,1.6,0.4,2.3-0.2c12.9-10.6,25.7-21.2,38.6-31.9L-183.9,390.2z M-172.3,388.7
		c0.7-5.4,1.9-8.9,2.6-14.4c0.2-1.3,0.6-3.1,0.7-4.2c-0.4-0.2-2.5-0.4-3.4-0.8c-0.3-0.1-0.6-0.4-0.8-0.6c-2.9-2-4.5-4.8-4.4-8.3
		c-6.7,0-13.3,0-19.6,0c-1.9,3.1-3.7,5.8-5.5,8.8c0.6,0.2,0.8,0.5,1.3,0.5c1.6,0.1,2.2,0.5,2.3,2.1c0.5,4.4,1.2,8.9,1.6,13.4
		c0.3,2.4,1.1,2.9,3.2,2.8c2.8-0.1,5.5,0.1,8.3,0c2.8-0.1,3.3,0.2,4.2,2.8c0.3,0.7,0.5,1.5,0.9,2.6
		C-178.1,392.5-175.5,389.8-172.3,388.7z M-204.7,416.9c-6.3-0.9-7.2-1.5-8.2-0.1C-210.2,416.7-207.2,418.4-204.7,416.9z
		 M-220.4,429.3c-2.6-0.1-5.3-2.2-7.8,0C-225.6,429.4-223,430.9-220.4,429.3z M-222.1,381.1c-1.8,2.5-1.6,5.4-1.5,8.3
		C-221.7,386.9-222.4,383.9-222.1,381.1z M-211.4,379.5c2.1-2.5,1.4-5.6,1.6-8.6C-211.6,373.5-210.9,376.6-211.4,379.5z
		 M-210.8,421.4c-2.4-0.2-4.8-1.9-7.3-0.3C-215.7,421.2-213.3,423.1-210.8,421.4z M-216.6,383.4c0.2,0,0.4,0.1,0.5,0.1
		c1.7-2.6,1.1-5.5,1.5-8.3c-0.3,0-0.6-0.1-0.9-0.1C-215.8,377.8-216.2,380.6-216.6,383.4z M-219.6,379c-1.8,2.5-1.1,5.6-1.5,8.3
		C-219.2,384.9-219.9,381.9-219.6,379z M-244.5,399.6c-1.4,1.2-2.2,5.8-1.5,8.6C-244.2,405.4-245.2,402.3-244.5,399.6z
		 M-226.1,391.5c1.4-2.5,1.3-5.3,1.2-8.2C-226.3,385.9-226.1,388.7-226.1,391.5z M-227,385.3c-0.3,0-0.5-0.1-0.8-0.1
		c-0.3,2.7-0.7,5.4-1,8.2c0.3,0,0.5,0.1,0.8,0.1C-227.2,390.9-227.3,388.1-227,385.3z M-195.4,408.7c-2.5-0.3-4.9-1.6-7.4-0.6
		C-200.3,408.6-197.9,409.9-195.4,408.7z M-197.8,403.3c0,0.2,0,0.5,0,0.7c2.8,1.4,6.5,1.5,7.4,0.1
		C-193,403.9-195.4,403.6-197.8,403.3z M-214.1,381.5c0.2,0,0.4,0.1,0.7,0.1c1.3-2.7,0.8-5.7,1.3-8.5c-0.3,0-0.5-0.1-0.8-0.1
		C-213.3,375.8-213.7,378.6-214.1,381.5z M-207.3,369c-0.2,0-0.4-0.1-0.7-0.1c-0.4,2.8-0.7,5.5-1.1,8.8
		C-207.6,376.1-207.3,374.5-207.3,369z M-200.2,405.5c0,0.2,0,0.5,0,0.7c4,1.4,6.3,1.5,7.3,0.2C-195.4,406-197.8,405.8-200.2,405.5z
		 M-231.5,389.1c-0.3,0-0.6-0.1-0.8-0.1c-0.4,2.7-0.7,5.4-1.1,8.1c0.2,0,0.4,0.1,0.5,0.1C-231.3,394.6-232.2,391.7-231.5,389.1z
		 M-217,377.1c-0.3,0-0.6-0.1-0.9-0.1c-0.3,2.7-0.7,5.5-1,8.2c0.2,0,0.4,0.1,0.6,0.1C-217.1,382.8-217.4,379.9-217,377.1z
		 M-208.2,419.3c-2.4-0.3-4.8-1.6-7.2-0.6C-213,419.3-210.7,420.4-208.2,419.3z M-192.9,399.5c0,0.2,0,0.4,0,0.6
		c2.9,1.3,6.2,1.5,7.4,0.3C-188.1,400.1-190.5,399.8-192.9,399.5z M-202.4,414.4c-2.6-0.4-5-0.7-7.3-1
		C-207.7,415.1-203.7,415.5-202.4,414.4z M-222.8,424.2c0,0.4-0.1,0.7-0.1,1c2.4,0,4.7,1.3,7.1,0.6c0-0.2,0-0.4,0-0.7
		C-218.1,424.8-220.5,424.5-222.8,424.2z M-200.2,412.8c-2.3-0.7-4.6-1.4-7.1-0.8C-205,412.6-202.7,413.6-200.2,412.8z
		 M-181.4,397.6c0-0.3,0.1-0.6,0.1-0.9c-2.3,0-4.6-1.2-7-0.6c0,0.2,0,0.4-0.1,0.6C-186,396.9-183.7,397.2-181.4,397.6z
		 M-239.9,402.3c0.3,0,0.6,0.1,0.9,0.1c0.3-2.7,0.6-5.4,0.9-8c-0.2,0-0.5-0.1-0.7-0.1C-239.2,397-239.5,399.7-239.9,402.3z
		 M-233.8,390.9c-0.3,0-0.5,0-0.8-0.1c-0.3,2.6-0.6,5.2-1,7.9c0.3,0,0.5,0.1,0.8,0.1C-234.5,396.2-234.2,393.6-233.8,390.9z
		 M-231.1,395.1c0.3,0,0.6,0.1,0.9,0.1c0.3-2.7,0.6-5.4,0.9-8.1c-0.2,0-0.5-0.1-0.7-0.1C-230.4,389.7-230.7,392.4-231.1,395.1z
		 M-198.1,411.4c0.1-0.3,0.1-0.6,0.2-0.9c-2.4-0.3-4.7-0.7-7.1-1c0,0.3-0.1,0.6-0.1,0.8C-202.8,410.7-200.4,411.1-198.1,411.4z
		 M-188.3,403.3c0-0.3,0-0.6,0-1c-2.3,0-4.6-1-7-0.7c0,0.2,0,0.5,0,0.7C-193,402.6-190.6,403-188.3,403.3z M-213.1,423.4
		c-2.7-0.4-5-0.7-7.3-1c0,0.2,0,0.3-0.1,0.5C-218.1,423.9-214.6,424.3-213.1,423.4z M-240.3,396.3c-0.2,0-0.5-0.1-0.7-0.1
		c-0.3,2.6-0.7,5.3-1,7.9c0.3,0,0.6,0.1,0.9,0.1C-240.9,401.6-240.6,398.9-240.3,396.3z M-218.2,428c0-0.3,0.1-0.6,0.1-0.8
		c-2.3-0.3-4.7-0.7-7-1c0,0.3-0.1,0.6-0.1,0.9C-222.8,427.4-220.5,427.7-218.2,428z M-190.5,397.6c0,0.3-0.1,0.6-0.1,0.9
		c2.3,0.3,4.5,0.6,6.8,0.9c0-0.3,0.1-0.5,0.1-0.8C-185.9,398.2-188.2,397.9-190.5,397.6z M-236.1,392.7c-0.2,0-0.4,0-0.6-0.1
		c-0.3,2.6-0.6,5.2-0.9,7.9c0.2,0,0.5,0.1,0.7,0.1C-236.6,398-236.4,395.3-236.1,392.7z M-204.4,367.1c-0.2,0-0.9,0.1-1.2,0
		c-0.3,2.7-0.6,5.4-0.9,8.1c0.2,0,0.8-0.4,1.1-0.4C-205.1,372.2-204.6,369.8-204.4,367.1z M-185.9,393.9c0,0.3-0.1,0.5-0.1,0.8
		c2.3,0.2,4.4,1.3,6.8,0.4C-181.4,394.7-183.6,394.3-185.9,393.9z M-242.6,398.3c-0.2,0-0.4,0-0.6,0c-0.3,2.5-0.5,5-0.8,7.5
		c0.2,0,0.4,0,0.6,0.1C-243.1,403.3-242.8,400.8-242.6,398.3z"/>
</g>
</svg>
